<svg xmlns="http://www.w3.org/2000/svg" xmlns:xlink="http://www.w3.org/1999/xlink" width="1920" zoomAndPan="magnify" viewBox="0 0 1440 809.999993" height="1080" preserveAspectRatio="xMidYMid meet" version="1.0"><defs><g/><clipPath id="2244fa02d5"><path d="M 590.007812 223.652344 L 818 223.652344 L 818 371 L 590.007812 371 Z M 590.007812 223.652344 " clip-rule="nonzero"/></clipPath></defs><g clip-path="url(#2244fa02d5)"><path fill="#000000" d="M 704.054688 370.726562 C 693.503906 370.726562 682.953125 369.417969 672.6875 366.796875 C 651.199219 361.316406 631.503906 350.191406 615.730469 334.617188 C 605.261719 324.285156 596.828125 312.378906 590.664062 299.234375 C 590.058594 297.9375 590.058594 296.445312 590.664062 295.148438 C 596.828125 282 605.261719 270.09375 615.730469 259.761719 C 627.652344 247.996094 641.554688 238.882812 657.054688 232.679688 C 672.019531 226.6875 687.835938 223.652344 704.054688 223.652344 C 720.277344 223.652344 736.089844 226.6875 751.054688 232.679688 C 766.554688 238.882812 780.457031 247.996094 792.378906 259.761719 C 802.847656 270.09375 811.28125 282 817.445312 295.148438 C 818.050781 296.445312 818.050781 297.9375 817.445312 299.234375 C 811.28125 312.378906 802.847656 324.285156 792.378906 334.617188 C 789.519531 337.441406 786.496094 340.152344 783.390625 342.679688 C 781.289062 344.386719 778.1875 344.089844 776.457031 342.019531 C 774.726562 339.945312 775.023438 336.882812 777.125 335.175781 C 779.988281 332.847656 782.777344 330.347656 785.414062 327.742188 C 794.515625 318.757812 801.945312 308.488281 807.523438 297.191406 C 801.945312 285.890625 794.515625 275.621094 785.414062 266.640625 C 763.683594 245.1875 734.789062 233.375 704.054688 233.375 C 673.320312 233.375 644.429688 245.1875 622.695312 266.640625 C 613.59375 275.621094 606.164062 285.890625 600.585938 297.191406 C 606.164062 308.488281 613.59375 318.757812 622.695312 327.742188 C 651.640625 356.3125 694.222656 367.585938 733.824219 357.160156 C 736.449219 356.46875 739.152344 358.007812 739.851562 360.605469 C 740.554688 363.199219 738.992188 365.863281 736.363281 366.554688 C 725.800781 369.335938 714.929688 370.726562 704.054688 370.726562 Z M 704.054688 370.726562 " fill-opacity="1" fill-rule="nonzero"/></g><path fill="#000000" d="M 743.941406 257.824219 C 733.285156 247.304688 719.121094 241.515625 704.054688 241.515625 C 688.988281 241.515625 674.824219 247.308594 664.167969 257.824219 C 653.519531 268.335938 647.648438 282.320312 647.648438 297.191406 C 647.648438 312.0625 653.519531 326.042969 664.167969 336.558594 C 674.824219 347.074219 688.988281 352.867188 704.054688 352.867188 C 717.132812 352.867188 729.53125 348.503906 739.542969 340.46875 C 741.066406 339.25 742.535156 337.945312 743.941406 336.558594 C 745.347656 335.167969 746.667969 333.722656 747.902344 332.21875 C 756.039062 322.339844 760.460938 310.097656 760.460938 297.1875 C 760.460938 282.320312 754.59375 268.335938 743.941406 257.824219 Z M 736.972656 329.683594 C 718.820312 347.597656 689.289062 347.597656 671.136719 329.683594 C 662.34375 321.003906 657.5 309.464844 657.5 297.191406 C 657.5 284.914062 662.34375 273.378906 671.136719 264.699219 C 680.210938 255.742188 692.132812 251.261719 704.054688 251.261719 C 715.976562 251.261719 727.898438 255.742188 736.972656 264.699219 C 745.765625 273.378906 750.609375 284.917969 750.609375 297.191406 C 750.609375 309.464844 745.765625 321.003906 736.972656 329.683594 Z M 736.972656 329.683594 " fill-opacity="1" fill-rule="nonzero"/><path fill="#000000" d="M 729.796875 321.539062 C 715.578125 335.570312 692.53125 335.570312 678.316406 321.539062 C 664.101562 307.507812 664.101562 284.757812 678.316406 270.726562 C 687.835938 261.328125 701.316406 258.226562 713.453125 261.414062 C 710.800781 262.371094 708.308594 263.90625 706.179688 266.007812 C 698.339844 273.746094 698.339844 286.292969 706.179688 294.035156 C 714.023438 301.773438 726.734375 301.773438 734.574219 294.035156 C 736.707031 291.929688 738.257812 289.472656 739.230469 286.855469 C 742.457031 298.835938 739.316406 312.140625 729.796875 321.539062 Z M 729.796875 321.539062 " fill-opacity="1" fill-rule="nonzero"/><path fill="#000000" d="M 736.277344 337.246094 L 744.636719 328.996094 L 791.003906 374.761719 L 782.644531 383.015625 Z M 736.277344 337.246094 " fill-opacity="1" fill-rule="nonzero"/><path fill="#000000" d="M 790.667969 382.683594 C 786.722656 386.578125 780.324219 386.578125 776.375 382.683594 L 745.476562 352.183594 C 743.597656 350.328125 743.597656 347.324219 745.476562 345.46875 L 752.96875 338.078125 C 754.84375 336.222656 757.890625 336.222656 759.765625 338.078125 L 790.667969 368.578125 C 794.613281 372.472656 794.613281 378.785156 790.667969 382.683594 Z M 790.667969 382.683594 " fill-opacity="1" fill-rule="nonzero"/><g fill="#000000" fill-opacity="1"><g transform="translate(342.059697, 551.509405)"><g><path d="M 12.890625 36.25 L 12.890625 -89.4375 L 35.359375 -89.4375 L 35.359375 -77.765625 L 37.0625 -77.4375 C 39.707031 -81.976562 43.242188 -85.394531 47.671875 -87.6875 C 52.109375 -89.988281 57.300781 -91.140625 63.25 -91.140625 C 70.4375 -91.140625 76.71875 -89.4375 82.09375 -86.03125 C 87.476562 -82.625 91.671875 -77.445312 94.671875 -70.5 C 97.671875 -63.550781 99.171875 -54.941406 99.171875 -44.671875 C 99.171875 -34.460938 97.585938 -25.894531 94.421875 -18.96875 C 91.265625 -12.050781 86.875 -6.875 81.25 -3.4375 C 75.625 -0.0078125 69.132812 1.703125 61.78125 1.703125 C 56.21875 1.703125 51.40625 0.769531 47.34375 -1.09375 C 43.289062 -2.957031 39.863281 -5.863281 37.0625 -9.8125 L 35.359375 -9.484375 L 35.359375 36.25 Z M 55.546875 -17.359375 C 62.242188 -17.359375 67.320312 -19.546875 70.78125 -23.921875 C 74.25 -28.296875 75.984375 -35.210938 75.984375 -44.671875 C 75.984375 -54.140625 74.25 -61.070312 70.78125 -65.46875 C 67.320312 -69.875 62.242188 -72.078125 55.546875 -72.078125 C 49.273438 -72.078125 44.300781 -69.804688 40.625 -65.265625 C 36.945312 -60.734375 35.109375 -53.867188 35.109375 -44.671875 C 35.109375 -35.535156 36.945312 -28.695312 40.625 -24.15625 C 44.300781 -19.625 49.273438 -17.359375 55.546875 -17.359375 Z M 55.546875 -17.359375 "/></g></g></g><g fill="#000000" fill-opacity="1"><g transform="translate(449.172988, 551.509405)"><g><path d="M 12.890625 0 L 12.890625 -89.4375 L 34.703125 -89.4375 L 34.703125 -76.140625 L 36.40625 -75.8125 C 38.570312 -80.789062 41.410156 -84.441406 44.921875 -86.765625 C 48.429688 -89.085938 52.703125 -90.25 57.734375 -90.25 C 62.816406 -90.25 66.679688 -89.382812 69.328125 -87.65625 L 65.515625 -68.28125 L 63.8125 -67.953125 C 62.351562 -68.546875 60.945312 -68.976562 59.59375 -69.25 C 58.25 -69.519531 56.601562 -69.65625 54.65625 -69.65625 C 48.382812 -69.65625 43.597656 -67.453125 40.296875 -63.046875 C 37.003906 -58.640625 35.359375 -51.570312 35.359375 -41.84375 L 35.359375 0 Z M 12.890625 0 "/></g></g></g><g fill="#000000" fill-opacity="1"><g transform="translate(516.959991, 551.509405)"><g><path d="M 51.96875 1.703125 C 43.21875 1.703125 35.53125 -0.09375 28.90625 -3.6875 C 22.28125 -7.28125 17.144531 -12.550781 13.5 -19.5 C 9.851562 -26.445312 8.03125 -34.835938 8.03125 -44.671875 C 8.03125 -54.515625 9.851562 -62.921875 13.5 -69.890625 C 17.144531 -76.867188 22.28125 -82.15625 28.90625 -85.75 C 35.53125 -89.34375 43.21875 -91.140625 51.96875 -91.140625 C 60.726562 -91.140625 68.421875 -89.34375 75.046875 -85.75 C 81.671875 -82.15625 86.816406 -76.867188 90.484375 -69.890625 C 94.160156 -62.921875 96 -54.515625 96 -44.671875 C 96 -34.835938 94.160156 -26.445312 90.484375 -19.5 C 86.816406 -12.550781 81.671875 -7.28125 75.046875 -3.6875 C 68.421875 -0.09375 60.726562 1.703125 51.96875 1.703125 Z M 51.96875 -17.359375 C 65.863281 -17.359375 72.8125 -26.460938 72.8125 -44.671875 C 72.8125 -54.140625 71.023438 -61.070312 67.453125 -65.46875 C 63.890625 -69.875 58.726562 -72.078125 51.96875 -72.078125 C 38.082031 -72.078125 31.140625 -62.941406 31.140625 -44.671875 C 31.140625 -26.460938 38.082031 -17.359375 51.96875 -17.359375 Z M 51.96875 -17.359375 "/></g></g></g><g fill="#000000" fill-opacity="1"><g transform="translate(619.208119, 551.509405)"><g><path d="M 61.546875 0 L 34.78125 0 L 1.703125 -89.4375 L 25.21875 -89.4375 L 47.4375 -25.703125 L 49.296875 -25.703125 L 71.59375 -89.4375 L 94.546875 -89.4375 Z M 61.546875 0 "/></g></g></g><g fill="#000000" fill-opacity="1"><g transform="translate(713.672088, 551.509405)"><g><path d="M 88.390625 -39.65625 L 30.890625 -39.65625 C 31.535156 -31.863281 33.75 -26.195312 37.53125 -22.65625 C 41.320312 -19.125 46.488281 -17.359375 53.03125 -17.359375 C 58.164062 -17.359375 62.328125 -18.316406 65.515625 -20.234375 C 68.703125 -22.148438 71.269531 -25.054688 73.21875 -28.953125 L 74.921875 -28.953125 L 89.84375 -19.375 C 86.925781 -13.101562 82.519531 -8.019531 76.625 -4.125 C 70.726562 -0.238281 62.863281 1.703125 53.03125 1.703125 C 43.789062 1.703125 35.800781 -0.0507812 29.0625 -3.5625 C 22.332031 -7.082031 17.144531 -12.3125 13.5 -19.25 C 9.851562 -26.195312 8.03125 -34.671875 8.03125 -44.671875 C 8.03125 -54.835938 9.945312 -63.40625 13.78125 -70.375 C 17.625 -77.351562 22.816406 -82.554688 29.359375 -85.984375 C 35.898438 -89.421875 43.25 -91.140625 51.40625 -91.140625 C 64.050781 -91.140625 73.738281 -87.785156 80.46875 -81.078125 C 87.207031 -74.378906 90.578125 -64.539062 90.578125 -51.5625 C 90.578125 -46.863281 90.410156 -43.21875 90.078125 -40.625 Z M 69.078125 -54.171875 C 68.867188 -60.972656 67.289062 -65.925781 64.34375 -69.03125 C 61.394531 -72.144531 57.082031 -73.703125 51.40625 -73.703125 C 40.050781 -73.703125 33.375 -67.191406 31.375 -54.171875 Z M 69.078125 -54.171875 "/></g></g></g><g fill="#000000" fill-opacity="1"><g transform="translate(810.892987, 551.509405)"><g><path d="M 12.890625 0 L 12.890625 -89.4375 L 34.703125 -89.4375 L 34.703125 -76.140625 L 36.40625 -75.8125 C 38.570312 -80.789062 41.410156 -84.441406 44.921875 -86.765625 C 48.429688 -89.085938 52.703125 -90.25 57.734375 -90.25 C 62.816406 -90.25 66.679688 -89.382812 69.328125 -87.65625 L 65.515625 -68.28125 L 63.8125 -67.953125 C 62.351562 -68.546875 60.945312 -68.976562 59.59375 -69.25 C 58.25 -69.519531 56.601562 -69.65625 54.65625 -69.65625 C 48.382812 -69.65625 43.597656 -67.453125 40.296875 -63.046875 C 37.003906 -58.640625 35.359375 -51.570312 35.359375 -41.84375 L 35.359375 0 Z M 12.890625 0 "/></g></g></g><g fill="#000000" fill-opacity="1"><g transform="translate(881.031496, 551.509405)"><g><path d="M 12.890625 0 L 12.890625 -125.359375 L 35.359375 -125.359375 L 35.359375 -55.78125 L 37.546875 -55.78125 L 63.40625 -89.4375 L 86.1875 -89.4375 L 86.1875 -87.578125 L 55.78125 -48.328125 L 89.59375 -2.03125 L 89.59375 0 L 65.921875 0 L 37.546875 -37.703125 L 35.359375 -37.703125 L 35.359375 0 Z M 12.890625 0 "/></g></g></g><g fill="#000000" fill-opacity="1"><g transform="translate(970.792616, 551.509405)"><g><path d="M 34.859375 1.703125 C 29.128906 1.703125 24.15625 0.648438 19.9375 -1.453125 C 15.726562 -3.566406 12.488281 -6.660156 10.21875 -10.734375 C 7.945312 -14.816406 6.8125 -19.722656 6.8125 -25.453125 C 6.8125 -30.753906 7.945312 -35.203125 10.21875 -38.796875 C 12.488281 -42.390625 16 -45.332031 20.75 -47.625 C 25.507812 -49.925781 31.726562 -51.703125 39.40625 -52.953125 C 44.757812 -53.816406 48.828125 -54.757812 51.609375 -55.78125 C 54.390625 -56.8125 56.265625 -57.972656 57.234375 -59.265625 C 58.210938 -60.566406 58.703125 -62.21875 58.703125 -64.21875 C 58.703125 -67.082031 57.703125 -69.269531 55.703125 -70.78125 C 53.703125 -72.300781 50.378906 -73.0625 45.734375 -73.0625 C 40.753906 -73.0625 36.019531 -71.953125 31.53125 -69.734375 C 27.050781 -67.515625 23.160156 -64.59375 19.859375 -60.96875 L 18.25 -60.96875 L 8.84375 -75.171875 C 13.382812 -80.191406 18.921875 -84.109375 25.453125 -86.921875 C 31.992188 -89.734375 39.132812 -91.140625 46.875 -91.140625 C 58.707031 -91.140625 67.269531 -88.625 72.5625 -83.59375 C 77.863281 -78.570312 80.515625 -71.4375 80.515625 -62.1875 L 80.515625 -23.359375 C 80.515625 -19.359375 82.269531 -17.359375 85.78125 -17.359375 C 87.132812 -17.359375 88.460938 -17.597656 89.765625 -18.078125 L 90.890625 -17.75 L 92.515625 -2.109375 C 91.273438 -1.296875 89.546875 -0.628906 87.328125 -0.109375 C 85.109375 0.398438 82.675781 0.65625 80.03125 0.65625 C 74.675781 0.65625 70.5 -0.367188 67.5 -2.421875 C 64.5 -4.484375 62.351562 -7.703125 61.0625 -12.078125 L 59.359375 -12.25 C 54.972656 -2.945312 46.804688 1.703125 34.859375 1.703125 Z M 42 -15.078125 C 47.1875 -15.078125 51.332031 -16.820312 54.4375 -20.3125 C 57.550781 -23.800781 59.109375 -28.648438 59.109375 -34.859375 L 59.109375 -43.953125 L 57.578125 -44.265625 C 56.222656 -43.191406 54.445312 -42.289062 52.25 -41.5625 C 50.0625 -40.832031 46.914062 -40.113281 42.8125 -39.40625 C 37.945312 -38.59375 34.445312 -37.195312 32.3125 -35.21875 C 30.175781 -33.25 29.109375 -30.457031 29.109375 -26.84375 C 29.109375 -23 30.242188 -20.078125 32.515625 -18.078125 C 34.785156 -16.078125 37.945312 -15.078125 42 -15.078125 Z M 42 -15.078125 "/></g></g></g></svg>